<svg width="800" height="140" xmlns="http://www.w3.org/2000/svg">

 <g>
  <title>background</title>
  <rect fill="none" id="canvas_background" height="142" width="802" y="-1" x="-1"/>
 </g>
 <g>
  <title>Layer 1</title>
  <g id="svg_1">
   <path id="svg_2" d="m127.90601,96.968c-0.857,0.121 -1.844,0.123 -2.956,0.004c-1.186,-0.125 -2.978,-0.473 -5.381,-1.041c-2.405,-0.57 -4.164,-0.914 -5.276,-1.031c-0.836,-0.088 -1.297,0.287 -1.385,1.121c-0.088,0.836 -0.047,2.105 0.125,3.813c0.282,2.004 0.632,3.025 1.05,3.068s0.736,0.025 0.956,-0.059c0.22,-0.082 0.398,-0.115 0.539,-0.102c-0.07,-0.006 -0.329,0.266 -0.772,0.816c-0.446,0.553 -0.687,1.002 -0.724,1.35c-0.125,1.186 0.706,5.828 2.491,13.936c1.786,8.107 2.546,13.414 2.282,15.918c-0.096,0.904 -0.657,1.551 -1.683,1.938c-1.151,-6.459 -2.3,-12.916 -3.449,-19.369c-2.099,-10.146 -3.914,-15.301 -5.444,-15.461c-0.35,-0.037 -0.582,0.008 -0.701,0.137c-0.119,0.129 -0.353,0.174 -0.701,0.137c0.209,0.021 -0.802,-1.068 -3.033,-3.275c-2.232,-2.205 -4.496,-3.43 -6.793,-3.672c-0.626,-0.064 -3.775,0.412 -9.442,1.434c-5.885,1.068 -8.819,1.852 -8.8,2.346c-0.65,2.818 -1.248,4.832 -1.797,6.039c-1.177,2.48 -2.907,4.201 -5.189,5.156c0.073,-0.695 0.036,-1.686 -0.109,-2.969c-0.8,0.902 -2.04,2.318 -3.721,4.254c-0.381,-0.395 -0.712,-0.604 -0.989,-0.633c0.007,-0.07 0.107,-0.357 0.302,-0.865c0.194,-0.506 0.306,-0.898 0.335,-1.18c-0.187,-0.23 -0.525,-0.369 -1.011,-0.422c-0.767,-0.08 -1.443,0.322 -2.028,1.211c-0.586,0.889 -1.132,1.727 -1.638,2.52l-1.984,-0.209c2.423,-4.953 6.214,-11.555 11.379,-19.811c-0.551,-0.129 -3.475,-0.436 -8.771,-0.926c1.154,-0.934 3.694,-2.002 7.623,-3.209c3.641,-1.162 5.586,-1.908 5.831,-2.234c2.473,-4.104 7.099,-11.254 13.875,-21.451c5.833,-8.605 8.769,-13.082 8.806,-13.431c0.029,-0.277 -0.204,-1.745 -0.698,-4.402c-0.645,-3.236 -1.023,-5.316 -1.137,-6.244c0.076,-0.061 0.637,-0.039 1.682,0.071c0.12,-0.479 -0.033,-1.692 -0.461,-3.638c0.073,-0.696 0.423,-1.011 1.05,-0.945c0.626,0.065 1,-0.14 1.121,-0.621c0.149,-0.758 0.301,-1.199 0.457,-1.325c0.281,0.664 1.2,3.964 2.758,9.899c0.768,-0.622 2.389,-2.634 4.859,-6.034c2.224,-3.074 4.391,-5.274 6.502,-6.601c-0.029,0.279 0.07,0.836 0.299,1.668c0.229,0.834 0.325,1.425 0.289,1.772c-0.044,0.417 -1.377,2.706 -3.997,6.864c-0.162,0.194 -0.114,0.41 0.143,0.648c0.538,-0.435 1.155,-0.618 1.852,-0.544c-0.015,0.141 0.092,0.469 0.319,0.983c-1.052,1.298 -2.63,3.244 -4.733,5.837c-0.081,0.766 0.261,1.188 1.028,1.27c-2.951,4.616 -4.44,7.064 -4.469,7.342c-0.44,4.177 1.913,12.238 7.06,24.184c-0.133,-0.084 -1.159,-1.707 -3.078,-4.865c-0.147,0.057 -0.252,0.395 -0.318,1.021c-0.242,2.299 0.416,5.078 1.972,8.34c1.446,-1.045 2.182,-1.672 2.204,-1.881c0.087,0.502 0.212,0.99 0.374,1.465c0.161,0.477 0.451,0.734 0.868,0.777c0.347,0.037 0.904,0.096 1.671,0.176c0.765,0.082 1.287,0.137 1.566,0.166c0.032,0.355 0.038,0.637 0.016,0.846c-0.044,0.418 -0.251,0.713 -0.621,0.885c-0.67,0.352 -1.083,0.59 -1.237,0.715c3.381,0.639 5.552,1.746 6.513,3.326c1.705,2.502 3.149,4.168 4.329,4.997zm-52.086,2.324l-3.364,7.883l-0.626,-0.066l3.364,-7.883l0.626,0.066zm18.149,-5.901c-3.668,-1.934 -5.745,-2.93 -6.232,-2.98c-1.74,-0.184 -3.063,0.348 -3.968,1.588c-1.305,1.695 -2.146,2.662 -2.522,2.902c4.12,0.295 8.361,-0.209 12.722,-1.51zm10.256,-7.154l0.451,-4.281c0.105,-0.34 -0.24,-2.734 -1.038,-7.184c-0.934,-5.167 -1.503,-8.78 -1.708,-10.844c-2.222,2.37 -4.691,5.771 -7.41,10.199c-3.668,6.09 -5.795,9.563 -6.376,10.414l3.029,0.32c0.277,0.027 1.384,0.039 3.322,0.033c1.936,-0.008 3.565,0.059 4.888,0.197c2.018,0.214 3.633,0.595 4.842,1.146zm0.538,10.93c-1.015,-0.387 -2.593,-1.117 -4.732,-2.186c0.022,-0.209 0.264,-0.502 0.726,-0.875c0.462,-0.373 0.899,-0.504 1.309,-0.391l2.611,0.275c-0.163,1.534 -0.135,2.593 0.086,3.177zm6.787,-54.397l-0.626,-0.066l-0.666,1.302l0.604,0.275l0.688,-1.511z" fill="#931E23"/>
   <path id="svg_3" d="m228.37601,44.173c0,1.678 -3.997,5.895 -11.987,12.65c-7.993,6.757 -12.999,10.134 -15.021,10.134c-0.483,0 -1.228,0.209 -2.238,0.629c-1.011,0.419 -1.758,0.629 -2.239,0.629c-0.578,0 -2.744,-0.209 -6.499,-0.629s-5.899,-0.629 -6.427,-0.629c-0.531,0 -2.12,-0.301 -4.767,-0.909c-2.649,-0.605 -4.212,-0.909 -4.693,-0.909c-2.505,0 -7.03,0.793 -13.576,2.376c0,1.957 0.12,4.846 0.361,8.667c0.239,3.82 0.361,5.871 0.361,6.148l0,18.313l-0.29,4.613c-0.097,2.982 -0.097,5.266 0,6.848c-0.097,-1.678 -0.193,-3.4 -0.289,-5.17c-0.097,-1.119 -0.578,-2.936 -1.444,-5.453c-0.386,0.561 -0.578,1.818 -0.578,3.775c0,0.092 0.433,2.795 1.3,8.107c0.867,5.311 1.3,8.014 1.3,8.105c0,1.025 -0.675,3.68 -2.022,7.967c-1.541,5.313 -2.455,8.619 -2.744,9.926c-2.311,-2.891 -4.816,-9.32 -7.51,-19.291c-0.194,-2.234 -0.122,-4.146 0.217,-5.729c0.336,-1.586 0.505,-2.283 0.505,-2.098c0,-0.65 -0.772,-1.723 -2.311,-3.215c-0.194,0.559 -0.433,1.586 -0.722,3.074c-0.289,1.49 -0.53,2.563 -0.722,3.215c-2.119,-15 -2.65,-30.377 -1.589,-46.126c-0.483,-1.21 -1.831,-2.143 -4.044,-2.795c-0.771,3.634 -1.155,6.757 -1.155,9.365c0,7.549 0.239,15.191 0.722,22.924c0.192,3.635 0.962,8.48 2.311,14.537c1.155,5.123 2.261,10.203 3.322,15.236c0.77,0 1.589,-0.84 2.455,-2.518c0,1.025 0.047,2.051 0.145,3.074c0.095,1.025 0.77,1.725 2.022,2.098c0,0.371 -0.411,1.002 -1.228,1.887c-0.819,0.885 -1.324,1.654 -1.516,2.307c-2.696,-2.516 -5.055,-9.598 -7.077,-21.246c-2.022,-11.367 -3.033,-22.783 -3.033,-34.244l0,-16.774c0,0.094 0.217,-1.863 0.65,-5.871c0.434,-4.006 0.65,-7.315 0.65,-9.925c0,-1.769 -0.097,-3.214 -0.29,-4.333c-0.097,-0.838 -0.771,-2.935 -2.021,-6.29c-0.964,-2.796 -1.397,-4.798 -1.3,-6.011c-0.097,1.771 0.145,3.029 0.722,3.774c1.444,-1.957 2.167,-3.82 2.167,-5.591c0,-2.236 -1.181,-4.403 -3.539,-6.5c-2.36,-2.097 -3.538,-3.191 -3.538,-3.285c0,-6.709 2.983,-11.741 8.955,-15.096c4.716,-2.608 10.59,-3.914 17.62,-3.914c0.48,0 1.156,0.094 2.022,0.28c0.866,0.188 1.588,0.28 2.166,0.28c0.577,0 3.994,0.537 10.254,1.607c6.258,1.072 9.627,1.607 10.11,1.607c7.027,0 15.212,1.841 24.552,5.521c9.338,3.682 14.682,7.106 16.031,10.274c0.961,2.516 1.444,4.567 1.444,6.15c0,0.933 -0.289,2.005 -0.866,3.214c-0.578,1.212 -0.867,2.285 -0.867,3.215c0,0.839 0.408,2.051 1.227,3.634c0.817,1.585 1.228,2.796 1.228,3.634c0,0.468 -0.097,0.887 -0.289,1.258c-0.674,-1.118 -1.733,-2.562 -3.177,-4.333c-0.964,1.119 -1.397,2.89 -1.3,5.312c0.095,4.008 0.145,5.919 0.145,5.731c2.502,-0.372 4.139,-1.397 4.911,-3.075c0.48,-1.583 0.914,-3.215 1.299,-4.893c1.156,2.149 1.734,3.733 1.734,4.757zm-81.022,-39.697l-3.033,0c-6.644,2.984 -9.965,6.059 -9.965,9.226c0,1.492 0.336,2.564 1.011,3.215c4.427,-2.516 7.171,-4.193 8.232,-5.032c2.31,-2.049 3.56,-4.519 3.755,-7.409zm-6.5,24.322c0,-0.651 -0.289,-1.304 -0.867,-1.957c-0.867,-1.024 -1.35,-1.629 -1.444,-1.817c0,0.933 -0.145,2.354 -0.433,4.263c-0.289,1.911 -0.434,3.099 -0.434,3.564c0,1.865 0.528,3.634 1.589,5.312c1.059,-5.032 1.589,-8.154 1.589,-9.365zm3.178,34.384l0,-15.375c-1.252,-1.304 -2.361,-1.957 -3.322,-1.957l0,19.289c1.058,-1.303 2.166,-1.957 3.322,-1.957zm0.577,-19.987c0,-4.938 -0.122,-8.642 -0.361,-11.112c-0.241,-2.468 -0.361,-3.377 -0.361,-2.726c-1.541,7.457 -2.311,11.137 -2.311,11.043c0,0.653 0.434,1.212 1.3,1.677c0.578,0.372 1.156,0.746 1.733,1.118zm1.011,-26.698l-0.866,-0.28l-0.867,1.538l0.867,0.419l0.866,-1.677zm2.6,91.135l-1.156,0l-1.3,-19.148l1.155,0l1.301,19.148zm19.209,-103.016c-2.119,-1.024 -3.419,-1.538 -3.899,-1.538c-6.163,0 -11.121,0.279 -14.876,0.839c0.769,1.212 1.684,3.029 2.744,5.451l2.744,0c1.347,0 5.776,-1.583 13.287,-4.752zm-12.999,34.804c0,-0.465 -0.267,-2.585 -0.794,-6.359c-0.53,-3.774 -0.844,-6.452 -0.938,-8.037c-2.119,1.677 -3.466,3.029 -4.044,4.053c0.672,0.653 1.539,1.678 2.6,3.075c-0.289,0.279 -0.722,0.328 -1.3,0.14c-0.772,-0.186 -1.205,-0.279 -1.3,-0.279l0,8.247c0,2.424 0.48,4.403 1.444,5.941c0.961,1.537 1.925,3.053 2.888,4.542c0,-1.489 0.239,-3.68 0.722,-6.57c0.481,-2.887 0.722,-4.473 0.722,-4.753zm-1.3,72.126c0.384,-9.225 0.239,-17.893 -0.433,-26c-0.194,-2.699 -1.494,-8.059 -3.9,-16.073l0,12.161c0,0.932 0.673,5.313 2.022,13.139c1.445,8.294 2.214,13.886 2.311,16.773zm0.578,-53.954c0,-0.559 -0.097,-1.258 -0.289,-2.097c-0.194,-0.839 -0.289,-1.35 -0.289,-1.538c-1.061,0 -1.831,-0.231 -2.311,-0.699c0,0.467 -0.123,1.306 -0.361,2.516c-0.241,1.212 -0.361,2.005 -0.361,2.376c0.48,0 1.178,-0.092 2.094,-0.279c0.914,-0.186 1.42,-0.279 1.517,-0.279zm-0.866,3.634l0,-2.935l-1.155,0l0,2.935l1.155,0zm4.765,-44.589l0,-3.495c-3.177,1.118 -5.055,2.005 -5.632,2.656l0,5.451c0.672,-0.279 1.805,-0.978 3.394,-2.096c1.589,-1.118 2.334,-1.957 2.238,-2.516zm2.311,64.297l-1.011,0l-0.722,2.098l0.866,0.279l0.867,-2.377zm0,17.893l-1.156,0l0,-14.818l1.156,0l0,14.818zm57.337,-65.696c0,-1.21 -2.938,-4.519 -8.81,-9.924c-6.163,-5.497 -10.207,-8.247 -12.132,-8.247c-4.718,0 -11.265,0.793 -19.642,2.376c-10.881,1.957 -16.32,4.333 -16.32,7.129c0,3.542 -0.217,7.152 -0.65,10.833c-0.434,3.682 -0.65,7.059 -0.65,10.134c0,6.897 1.395,11.182 4.188,12.86c2.502,-0.931 7.077,-2.097 13.72,-3.495c6.161,-1.304 10.638,-2.516 13.432,-3.634c4.428,-1.863 7.51,-4.333 9.243,-7.408c1.733,0.933 2.744,1.398 3.033,1.398c1.058,0 3.755,-1.629 8.088,-4.893c4.334,-3.262 6.5,-5.638 6.5,-7.129zm-23.253,-20.268c-0.963,-0.839 -1.444,-1.769 -1.444,-2.796c-1.156,0 -2.889,-0.116 -5.199,-0.349c-2.311,-0.231 -3.661,-0.35 -4.044,-0.35c-0.386,0 -3.274,0.559 -8.665,1.678c-5.777,1.211 -9.871,1.957 -12.276,2.236l0,4.193c13.671,-3.354 22.819,-5.032 27.441,-5.032c0.578,0 1.322,0.07 2.238,0.209c0.914,0.141 1.564,0.211 1.949,0.211zm-3.898,43.051c-3.178,0.839 -6.355,1.677 -9.533,2.516c-3.852,1.119 -6.692,2.471 -8.521,4.054l4.043,0c1.54,0.093 6.211,-2.097 14.011,-6.57zm25.129,-3.914c-4.044,0.839 -9.774,2.191 -17.187,4.054c-4.141,1.865 -9.918,4.381 -17.331,7.547c1.155,0.188 3.033,0.607 5.632,1.258c2.213,0.559 3.561,0.839 4.044,0.839c5.294,0 10.013,-0.885 14.154,-2.656c5.583,-2.327 9.147,-6.01 10.688,-11.042zm-8.377,-37.74c-2.889,-2.796 -4.719,-4.193 -5.488,-4.193l-4.043,0c1.444,1.865 4.621,3.263 9.531,4.193zm-1.733,33.967l-0.433,-0.839l-7.366,3.914l0,0.839l7.799,-3.914zm9.677,-24.741l-7.366,-5.591l-0.578,0.839l7.366,5.591l0.578,-0.839zm3.033,21.666c-2.311,1.306 -5.488,3.075 -9.532,5.312c1.155,0 4.139,-0.56 8.955,-1.678c0,-0.465 0.094,-1.14 0.289,-2.026c0.191,-0.885 0.288,-1.42 0.288,-1.608zm2.311,-24.042l-1.444,-3.075l-1.011,0.419l1.444,2.656l1.011,0z" fill="#931E23"/>
   <path id="svg_4" d="m350.24101,121.167c-3.681,2.574 -9.684,4.508 -18.009,5.797c-8.328,1.287 -16.629,2.529 -24.909,3.725c2.943,2.115 8.28,3.174 16.008,3.174c0.828,0 2.046,0 3.657,0c1.609,0 2.782,0 3.519,0c6.531,0 11.085,0.736 13.662,2.209c-1.197,0.553 -2.898,0.828 -5.106,0.828c-2.394,0 -5.499,-0.346 -9.315,-1.035c-3.819,-0.689 -5.774,-1.035 -5.865,-1.035c-5.429,0 -9.729,-0.254 -12.903,-0.76c-3.174,-0.506 -5.682,-0.758 -7.521,-0.758c-0.461,0 -2.829,-0.254 -7.107,-0.76c-4.278,-0.506 -6.741,-0.758 -7.383,-0.758c-0.645,0 -3.98,0.389 -10.005,1.172c-6.027,0.781 -9.339,1.174 -9.936,1.174c-0.599,0 -3.588,0.113 -8.97,0.344c-5.382,0.229 -8.396,0.346 -9.039,0.346c-0.552,0 -5.337,-0.736 -14.352,-2.207c-10.212,-1.75 -17.574,-2.898 -22.08,-3.451c3.219,-3.035 5.427,-4.877 6.624,-5.52c2.115,-1.104 5.61,-1.887 10.488,-2.346c3.864,-0.369 12.097,-0.689 24.702,-0.967c1.932,-0.092 4.875,-0.92 8.832,-2.482c3.312,-1.291 6.624,-2.623 9.936,-4.004c-4.326,-0.092 -10.397,-4.553 -18.216,-13.385c-7.176,-8.096 -13.662,-17.25 -19.458,-27.462c-6.072,-10.579 -9.108,-18.307 -9.108,-23.184c0,-4.875 1.242,-10.212 3.726,-16.008c2.76,-6.624 6.255,-11.407 10.488,-14.352c2.484,-1.747 6.117,-3.541 10.902,-5.382c3.955,-1.47 7.911,-2.898 11.868,-4.278c2.484,-1.563 4.92,-3.126 7.314,-4.692c3.864,-2.392 7.359,-3.588 10.488,-3.588c0.552,0 1.678,0.116 3.381,0.345c1.702,0.231 2.875,0.345 3.519,0.345c0.643,0 2.253,-0.367 4.83,-1.104c2.575,-0.735 4.186,-1.104 4.83,-1.104c1.656,0 4.485,0.852 8.487,2.553c4.002,1.704 5.956,2.967 5.865,3.795l0,4.278c-0.737,-1.011 -2.991,-2.782 -6.762,-5.313c-3.773,-2.529 -6.072,-3.795 -6.9,-3.795c-1.013,0 -2.301,0.369 -3.864,1.104c9.108,3.221 16.743,9.891 22.908,20.01c4.323,8.189 8.602,16.332 12.834,24.426c-0.461,0.828 -0.69,1.979 -0.69,3.45c0,1.38 0.298,3.359 0.897,5.934c0.597,2.577 0.897,4.188 0.897,4.83c0,1.841 -0.599,6.786 -1.794,14.835c-1.197,8.051 -2.07,13.18 -2.622,15.387c-3.312,7.639 -8.004,12.973 -14.076,16.008c-3.498,1.75 -9.846,3.406 -19.044,4.969c-9.66,1.656 -17.343,3.727 -23.046,6.209c6.072,0.367 16.744,1.15 32.016,2.348c13.063,1.01 19.917,1.518 20.562,1.518c0.459,0 2.092,-0.23 4.899,-0.689c2.805,-0.463 4.53,-0.691 5.175,-0.691l14.766,0l0,-0.003zm-108.882,4.002c-5.244,0.553 -9.293,0.828 -12.144,0.828c2.391,0.828 5.059,1.242 8.004,1.242c1.38,0 2.76,-0.689 4.14,-2.07zm12.972,-105.156c-1.014,0.921 -1.979,1.38 -2.898,1.38c-0.738,0 -1.221,-0.366 -1.449,-1.104c-0.23,-0.735 -0.438,-1.104 -0.621,-1.104c-4.692,3.588 -8.604,8.052 -11.73,13.386c-3.588,5.981 -5.382,11.73 -5.382,17.25c0,8.004 4.002,16.653 12.006,25.943c-1.104,-2.574 -2.231,-5.841 -3.381,-9.797c-1.151,-3.955 -1.725,-6.393 -1.725,-7.314c0,-5.334 1.38,-10.257 4.14,-14.766c1.839,-2.484 3.678,-5.013 5.52,-7.59c0.735,-1.471 1.608,-4.047 2.622,-7.728c1.194,-4.047 2.16,-6.9 2.898,-8.556zm-7.314,46.506l0,-8.97l-1.242,0l0,8.97l1.242,0zm25.806,62.238c-0.828,-0.367 -3.036,-1.104 -6.624,-2.207c-3.588,-1.104 -5.705,-1.656 -6.348,-1.656c-0.645,0 -5.244,1.426 -13.8,4.277c12.511,0 21.435,-0.137 26.772,-0.414zm-13.248,-84.318c-5.429,7.637 -8.142,14.123 -8.142,19.458c0,2.577 1.149,6.44 3.45,11.592c0.552,-8.004 0.966,-13.11 1.242,-15.318c0.735,-5.611 1.884,-10.854 3.45,-15.732zm-4.14,72.589l-2.76,2.76l-0.69,-0.828l2.622,-2.623l0.828,0.691zm17.388,-101.707c-0.093,-0.183 -1.518,-0.966 -4.278,-2.346c-1.104,2.208 -2.118,2.991 -3.036,2.346c-2.484,2.394 -4.968,4.877 -7.452,7.452c-2.484,2.577 -3.864,5.705 -4.14,9.384c4.783,-3.955 11.085,-9.567 18.906,-16.836zm49.818,50.508c0,-5.886 -3.636,-13.983 -10.902,-24.288c-7.821,-10.855 -14.766,-16.284 -20.838,-16.284c-1.656,0 -4.646,0.875 -8.97,2.622c-1.932,1.749 -4.002,3.312 -6.21,4.692c-2.577,1.565 -4.14,2.208 -4.692,1.932c-3.498,0.552 -6.533,5.244 -9.108,14.076c-2.394,8.004 -3.588,16.332 -3.588,24.978c0,6.717 4.23,11.686 12.696,14.905c5.979,2.301 12.604,3.449 19.872,3.449c11.775,0 19.734,-1.379 23.874,-4.139c5.244,-3.59 7.866,-10.903 7.866,-21.943zm-6.21,25.392c-12.513,2.484 -18.63,3.727 -18.354,3.727c-7.638,0 -12.192,-0.047 -13.662,-0.139c-3.405,-0.367 -10.074,-1.795 -20.01,-4.277c1.932,2.301 6.555,5.404 13.869,9.314c7.314,3.912 12.258,5.865 14.835,5.865c2.299,0 5.175,-1.219 8.625,-3.658c3.45,-2.436 6.646,-3.656 9.591,-3.656c0.643,-0.275 1.609,-1.355 2.898,-3.242c1.287,-1.885 2.023,-3.197 2.208,-3.934zm-5.244,34.086c-3.036,-0.094 -7.845,-0.393 -14.421,-0.896c-6.579,-0.508 -11.571,-0.76 -14.973,-0.76c-4.233,0 -8.004,0.275 -11.316,0.828c1.932,0.275 5.196,0.967 9.798,2.07c4.23,0.918 6.624,1.379 7.176,1.379c0.643,0 3.864,-0.322 9.66,-0.965c7.083,-0.921 11.775,-1.472 14.076,-1.656zm-29.946,-118.128c-1.196,-1.104 -1.794,-1.977 -1.794,-2.622c-0.92,0.921 -2.346,2.898 -4.278,5.934l3.588,0c0.552,-0.828 1.38,-1.932 2.484,-3.312zm-0.69,17.388l-0.414,-1.104l-4.278,2.484l0.414,1.104l4.278,-2.484zm-1.38,-8.142l-0.966,-0.414l-1.104,1.932l1.104,0.414l0.966,-1.932zm8.142,3.726l0,-1.242l-2.898,0l0,1.242l2.898,0zm4.692,-13.662c-0.552,0 -1.173,-0.297 -1.863,-0.897c-0.69,-0.597 -1.311,-0.897 -1.863,-0.897c0,0.186 -0.783,1.104 -2.346,2.76c3.771,-0.735 5.796,-1.056 6.072,-0.966zm23.598,17.526c-0.186,-1.839 -2.163,-4.692 -5.934,-8.556c-4.049,-4.231 -7.5,-6.348 -10.35,-6.348c-0.552,0 -2.277,0.276 -5.175,0.828c-2.898,0.552 -4.854,0.828 -5.865,0.828c0,-0.183 -0.093,0.645 -0.276,2.484c0,1.013 0.138,1.656 0.414,1.932c12.144,0.368 21.205,3.312 27.186,8.832zm13.248,31.464c-0.186,-1.471 -1.428,-4.83 -3.726,-10.074c-3.036,-6.991 -6.303,-12.696 -9.798,-17.112c-4.785,-6.072 -9.66,-9.061 -14.628,-8.97l-5.658,0c7.542,3.773 14.856,10.857 21.942,21.252c4.506,6.717 8.049,13.248 10.626,19.596l1.242,-4.692zm-9.798,-28.566l-2.622,-2.622l-0.828,0.69l2.622,2.76l0.828,-0.828zm7.59,41.4l-1.104,0l-1.932,13.523l1.104,0l1.932,-13.523z" fill="#931E23"/>
   <path id="svg_5" d="m407.26801,119.29c0,0.975 -1.828,1.951 -5.486,2.926c-1.097,0 -3.826,-0.762 -8.184,-2.285c-4.359,-1.525 -6.57,-2.287 -6.63,-2.287c-0.366,0 -1.25,0.076 -2.652,0.229c-1.403,0.152 -2.286,0.229 -2.652,0.229c-3.415,0 -7.224,-1.006 -11.431,-3.018c-3.719,-1.77 -7.042,-3.932 -9.968,-6.492c-1.952,-1.646 -4.725,-3.354 -8.321,-5.121c-3.11,-1.463 -5.64,-3.354 -7.591,-5.67c-1.646,-1.889 -2.469,-4.969 -2.469,-9.236c0,-8.656 2.621,-17.618 7.865,-26.885c5.913,-10.302 13.534,-17.893 22.862,-22.771c2.377,-1.646 4.755,-3.322 7.132,-5.03c3.109,-2.072 6.584,-3.109 10.425,-3.109c1.402,0 2.316,0.062 2.744,0.183c1.097,0.366 2.377,1.28 3.84,2.744c0,0.123 -0.091,0.381 -0.274,0.777c-0.183,0.397 -0.274,0.656 -0.274,0.777c-0.062,0 -0.215,-0.06 -0.458,-0.183c-0.244,-0.121 -0.58,-0.183 -1.006,-0.183c-0.489,0 -1.357,0.397 -2.606,1.189c-1.25,0.793 -2.454,1.586 -3.612,2.378c0,0.671 0.243,1.006 0.732,1.006c5.486,0 8.564,0.031 9.235,0.091l0.366,2.652c-0.427,-0.609 -1.494,-0.915 -3.2,-0.915c-0.427,0 -0.976,0.153 -1.646,0.458c-0.671,0.306 -1.189,0.457 -1.555,0.457s-0.747,-0.151 -1.143,-0.457c-0.397,-0.305 -0.777,-0.458 -1.143,-0.458c-1.098,0 -3.841,0.915 -8.23,2.744c-8.17,1.463 -14.876,5.792 -20.118,12.985c-4.755,6.463 -7.133,13.321 -7.133,20.577c0,6.828 2.164,13.199 6.493,19.111c4.876,6.645 10.882,9.969 18.015,9.969c0.305,0 1.569,-0.078 3.795,-0.229c2.225,-0.154 3.551,-0.23 3.978,-0.23c1.768,0 2.743,0.092 2.926,0.275c-0.976,0.242 -2.409,0.762 -4.298,1.555c-0.366,-0.367 -1.677,-0.428 -3.932,-0.182c0.549,0.73 1.859,1.096 3.932,1.096c0.243,0 1.173,-0.078 2.79,-0.229c1.614,-0.152 2.636,-0.229 3.063,-0.229c0.426,0 0.746,-0.152 0.96,-0.457c0.213,-0.307 0.533,-0.457 0.96,-0.457c0.305,0 0.732,0.303 1.281,0.914c0.548,0.609 1.036,0.914 1.463,0.914c0.549,0 2.5,-0.73 5.853,-2.193c-0.366,0.73 -0.885,1.828 -1.555,3.291c0.549,0.549 1.432,0.824 2.653,0.824c0,1.035 -0.275,1.705 -0.824,2.012c0.854,0.668 1.707,1.34 2.561,2.012c1.644,1.462 2.467,2.771 2.467,3.931zm-55.874,-22.313c-1.037,-2.316 -2.043,-4.664 -3.018,-7.041c-1.28,-2.805 -1.952,-5.123 -2.012,-6.951c-0.245,0 -0.519,1.586 -0.823,4.754c0.975,5.123 2.927,8.201 5.853,9.238zm4.573,-36.03c-1.952,2.194 -3.689,5.731 -5.212,10.607c-1.342,4.451 -2.012,8.08 -2.012,10.882c0,1.221 0.792,3.475 2.378,6.768c1.584,3.291 2.744,5.121 3.475,5.486c-0.915,-3.109 -1.86,-6.219 -2.835,-9.328c-0.183,-0.791 -0.274,-2.619 -0.274,-5.486c0,-3.962 0.426,-7.224 1.28,-9.785c1.035,-3.048 2.103,-6.096 3.2,-9.144zm-1.189,40.694l-0.458,0.639l-2.011,-1.555l0.366,-0.641l2.103,1.557zm17.284,8.869l-8.139,-3.566l0,0.73l7.956,3.477l0.183,-0.641zm16.186,-76.906c-3.171,0.306 -6.981,2.011 -11.431,5.121c-3.475,2.684 -6.95,5.335 -10.424,7.956c4.938,-2.561 8.504,-4.785 10.699,-6.675c1.097,-0.915 2.651,-1.555 4.664,-1.92c1.097,-0.732 1.646,-1.036 1.646,-0.915c1.279,-0.733 2.894,-1.922 4.846,-3.567zm-14.906,81.022l0,-0.824l-2.561,0l0,0.824l2.561,0zm2.743,0.914l0,-0.822l-2.561,-0.457l0,0.822l2.561,0.457zm10.333,-2.742l0,-0.732l-9.236,-1.371l0,0.641l9.236,1.462zm4.299,-78.646l0,-0.823l-1.646,0l0,0.823l1.646,0zm3.658,72.884l0,-0.732l-3.932,0.184l0,0.822l3.932,-0.274zm10.15,12.344c-0.123,0 -0.504,0.092 -1.143,0.275c-0.641,0.184 -1.176,0.275 -1.602,0.275c-1.22,0 -3.14,-0.398 -5.761,-1.189c-3.049,-0.914 -4.847,-1.861 -5.396,-2.836l5.03,-0.547c1.829,1.219 3.261,1.828 4.298,1.828c0.366,0 0.594,-0.152 0.686,-0.457c0.091,-0.307 0.32,-0.457 0.686,-0.457c1.22,0 2.288,1.035 3.202,3.108z" fill="#931E23"/>
   <path id="svg_6" d="m455.22701,78.784c-0.732,0.184 -1.586,0.275 -2.561,0.275c-1.039,0 -2.623,-0.139 -4.756,-0.412c-2.135,-0.273 -3.689,-0.412 -4.664,-0.412c-0.732,0 -1.098,0.367 -1.098,1.098c0,0.732 0.152,1.83 0.457,3.293c0.426,1.707 0.824,2.559 1.189,2.559s0.641,-0.045 0.822,-0.137c0.184,-0.09 0.336,-0.137 0.459,-0.137c-0.063,0 -0.262,0.26 -0.596,0.777c-0.336,0.52 -0.504,0.932 -0.504,1.234c0,1.037 1.145,4.984 3.43,11.844c2.287,6.857 3.43,11.385 3.43,13.578c0,0.793 -0.428,1.402 -1.279,1.83c-1.586,-5.486 -3.17,-10.973 -4.756,-16.461c-2.742,-8.596 -4.787,-12.895 -6.127,-12.895c-0.305,0 -0.502,0.063 -0.594,0.184c-0.092,0.123 -0.291,0.182 -0.596,0.182c0.184,0 -0.791,-0.852 -2.926,-2.559s-4.205,-2.561 -6.219,-2.561c-0.549,0 -3.232,0.701 -8.047,2.104c-5,1.463 -7.469,2.408 -7.408,2.834c-0.305,2.5 -0.639,4.297 -1.006,5.396c-0.793,2.256 -2.135,3.902 -4.023,4.938c0,-0.609 -0.123,-1.463 -0.365,-2.561c-0.609,0.854 -1.555,2.195 -2.834,4.023c-0.367,-0.307 -0.672,-0.457 -0.916,-0.457c0,-0.063 0.061,-0.32 0.184,-0.777c0.121,-0.457 0.184,-0.807 0.184,-1.051c-0.184,-0.184 -0.488,-0.275 -0.914,-0.275c-0.672,0 -1.221,0.412 -1.646,1.234c-0.428,0.824 -0.824,1.602 -1.189,2.332l-1.737,0c1.646,-4.51 4.327,-10.576 8.048,-18.199c-0.49,-0.059 -3.049,-0.059 -7.682,0c0.915,-0.912 3.018,-2.07 6.309,-3.475c3.049,-1.34 4.664,-2.163 4.848,-2.468c1.768,-3.779 5.121,-10.394 10.059,-19.844c4.266,-7.986 6.402,-12.131 6.402,-12.437c0,-0.243 -0.336,-1.493 -1.006,-3.75c-0.855,-2.744 -1.371,-4.511 -1.557,-5.304c0.061,-0.06 0.551,-0.091 1.465,-0.091c0.061,-0.426 -0.184,-1.463 -0.732,-3.109c0,-0.609 0.275,-0.915 0.824,-0.915s0.854,-0.213 0.914,-0.64c0.061,-0.67 0.152,-1.066 0.273,-1.189c0.305,0.549 1.402,3.324 3.293,8.322c0.607,-0.609 1.828,-2.499 3.658,-5.67c1.645,-2.865 3.322,-4.968 5.029,-6.31c0,0.244 0.137,0.717 0.41,1.417c0.275,0.702 0.412,1.205 0.412,1.509c0,0.366 -0.945,2.469 -2.834,6.31c-0.123,0.183 -0.061,0.366 0.182,0.549c0.426,-0.426 0.945,-0.64 1.555,-0.64c0,0.123 0.121,0.397 0.367,0.823c-0.793,1.22 -1.982,3.049 -3.566,5.486c0,0.672 0.334,1.006 1.006,1.006c-2.135,4.268 -3.201,6.524 -3.201,6.767c0,3.658 2.773,10.425 8.322,20.301c-0.123,-0.06 -1.158,-1.372 -3.109,-3.932c-0.123,0.061 -0.184,0.366 -0.184,0.915c0,2.012 0.824,4.359 2.471,7.041c1.156,-1.035 1.736,-1.646 1.736,-1.829c0.121,0.428 0.273,0.839 0.457,1.235s0.457,0.594 0.822,0.594c0.305,0 0.791,0 1.465,0c0.67,0 1.127,0 1.371,0c0.061,0.306 0.092,0.549 0.092,0.731c0,0.366 -0.152,0.641 -0.457,0.824c-0.549,0.365 -0.885,0.609 -1.006,0.73c2.986,0.245 4.967,1.007 5.943,2.287c1.707,2.015 3.109,3.327 4.207,3.935zm-44.903,6.767l-2.193,7.133l-0.549,0l2.195,-7.133l0.547,0zm15.182,-6.767c-3.354,-1.34 -5.244,-2.012 -5.67,-2.012c-1.525,0 -2.623,0.58 -3.293,1.738c-0.975,1.586 -1.615,2.5 -1.92,2.744c3.596,-0.122 7.225,-0.945 10.883,-2.47zm8.23,-7.132l0,-3.75c0.061,-0.304 -0.457,-2.346 -1.555,-6.127c-1.281,-4.39 -2.104,-7.467 -2.469,-9.236c-1.709,2.256 -3.537,5.427 -5.486,9.51c-2.625,5.609 -4.148,8.81 -4.574,9.602l2.652,0c0.244,0 1.203,-0.091 2.881,-0.274c1.676,-0.183 3.094,-0.274 4.252,-0.274c1.768,0 3.202,0.182 4.299,0.549zm1.463,9.419c-0.916,-0.242 -2.348,-0.732 -4.299,-1.465c0,-0.182 0.184,-0.455 0.549,-0.822c0.367,-0.365 0.732,-0.516 1.098,-0.457l2.287,0c0,1.342 0.121,2.256 0.365,2.744zm0.914,-47.736l-0.549,0l-0.457,1.188l0.549,0.183l0.457,-1.371z" fill="#931E23"/>
   <path id="svg_7" d="m514.21701,107.149c-2.926,1.891 -7.531,3.385 -13.809,4.482c-7.742,1.402 -12.561,2.438 -14.449,3.107c0.609,0.975 1.219,1.465 1.828,1.465c0.307,0 1.313,0.061 3.02,0.182c1.707,0.123 2.711,0.184 3.018,0.184c3.293,0 4.328,-0.031 3.109,-0.092c1.098,0.061 2.865,0.641 5.303,1.738c-1.523,0.059 -5.73,0.486 -12.619,1.279c-5.914,0.672 -10.242,1.006 -12.984,1.006c0.303,0 -0.611,-0.365 -2.744,-1.098c-0.061,0.061 -0.17,0.107 -0.32,0.137c-0.152,0.031 -0.229,0.23 -0.229,0.596c0,0.488 0.379,1.418 1.143,2.789c0.762,1.371 1.357,2.209 1.785,2.516c1.521,1.035 2.254,2.377 2.193,4.023c-1.279,0.184 -3.17,-1.982 -5.67,-6.494c-0.488,0.732 -0.58,1.402 -0.273,2.012c-0.551,-0.305 -1.129,-0.791 -1.738,-1.463c-0.914,-1.037 -1.799,-1.951 -2.652,-2.742l-1.279,0c-0.123,0.854 -0.488,2.041 -1.098,3.566c-0.672,-0.611 -1.037,-1.588 -1.098,-2.926c-0.063,-1.342 -0.26,-2.104 -0.594,-2.287c-0.336,-0.182 -1.266,-0.701 -2.789,-1.555c-1.16,-0.672 -1.922,-1.006 -2.287,-1.006c-0.123,0 -0.914,0.182 -2.377,0.549c-1.463,0.365 -2.318,0.549 -2.561,0.549c-0.672,0 -1.313,-0.305 -1.92,-0.916c4.145,-2.438 6.674,-3.656 7.59,-3.656c0.242,0 0.518,0.061 0.822,0.182c0.305,0.123 0.609,0.184 0.914,0.184c1.342,0 2.012,-0.488 2.012,-1.463l-3.566,-42.523l0,-27.526c0,-0.914 0.518,-2.163 1.555,-3.749c0.305,1.097 0.822,2.988 1.555,5.67c0.426,0 0.807,-0.442 1.145,-1.326c0.334,-0.883 0.502,-1.752 0.502,-2.606c0,-0.426 -0.031,-0.732 -0.092,-0.915c0.609,0.062 1.189,1.646 1.738,4.755c0.426,2.684 0.641,5.121 0.641,7.316l0,15.271c0,0.183 0.09,1.312 0.273,3.384c0.242,2.377 0.396,4.238 0.457,5.579c0.426,-1.829 0.762,-6.004 1.006,-12.528c0.305,-6.279 0.975,-11.278 2.014,-14.998l-0.916,27.892c0,8.047 0.365,16.035 1.098,23.959c0.486,5.67 0.914,9.328 1.281,10.973l29.537,-10.605l2.285,0c-0.854,0.912 -2.012,2.348 -3.475,4.297c1.158,0.184 2.574,0.045 4.252,-0.41c1.676,-0.459 2.484,-0.688 2.424,-0.688c1.768,0 3.658,0.49 5.67,1.463c0,0.365 -0.457,0.977 -1.373,1.828c0.851,0.426 1.765,0.639 2.742,0.639zm-50.113,-39.23l0,-22.313c-0.428,6.158 -0.641,8.932 -0.641,8.322c0,0.244 0.092,2.103 0.275,5.578c0.184,3.902 0.305,6.707 0.366,8.413zm3.75,30.361l-1.92,-13.809l0,3.658c0,0.549 0.182,1.951 0.547,4.207c0.425,2.501 0.884,4.479 1.373,5.944zm1.554,13.352c0.121,-2.012 0,-4.359 -0.367,-7.041c-0.488,-3.049 -1.158,-5.396 -2.012,-7.043l0,14.449l2.379,-0.365zm-0.916,-31.825l0,-3.749l-0.639,0l0,3.749l0.639,0zm2.012,40.328l-2.467,0.822l0,-0.547l2.285,-0.732l0.182,0.457zm10.152,-3.839l-6.492,-0.367c-0.367,0.244 -0.824,0.793 -1.373,1.646c1.646,0.305 3.414,0.457 5.305,0.457c1.156,0 2.011,-0.58 2.56,-1.736zm3.201,-3.75l-1.189,-0.549c-0.428,0.061 -2.471,0.213 -6.127,0.457c-1.83,0.121 -2.896,0.67 -3.201,1.646c4.39,-0.365 7.894,-0.884 10.517,-1.554zm9.51,-5.397l-1.555,0c-2.135,0.307 -4.268,0.641 -6.4,1.008c-3.111,0.609 -5.275,1.402 -6.494,2.377l3.842,0c5.668,0.123 9.203,-1.006 10.607,-3.385zm-3.566,11.158c-6.035,0 -9.178,0 -9.42,0c0.061,-0.367 0.533,-0.809 1.418,-1.326c0.883,-0.52 1.631,-0.777 2.24,-0.777c0.305,0 0.93,0.182 1.875,0.547c0.945,0.367 1.568,0.551 1.873,0.551c1.526,-0.001 2.197,0.333 2.014,1.005zm-3.477,-5.853l0,-0.549l-1.645,0l0,0.549l1.645,0zm11.615,-9.602c-1.828,0.914 -4.512,2.043 -8.047,3.383c0.059,0 0.242,0.033 0.547,0.092c0.305,0 0.641,0 1.008,0c0.73,0 1.828,-0.273 3.291,-0.822c1.951,-0.733 3.018,-1.616 3.201,-2.653zm1.463,7.133l-1.371,0c-1.037,-0.121 -3.506,0.396 -7.406,1.555c2.01,-0.242 4.938,-0.762 8.777,-1.555zm7.409,-3.75c-0.855,-0.852 -1.373,-1.279 -1.555,-1.279c-0.732,0 -2.287,0.365 -4.664,1.098c-2.561,0.73 -4.115,1.311 -4.664,1.736c1.584,0.123 5.213,-0.395 10.883,-1.555z" fill="#931E23"/>
   <path id="svg_8" d="m546.54501,58.176c-0.486,0.793 -2.193,2.652 -5.119,5.578c-2.561,2.561 -4.33,5.091 -5.305,7.59c0.854,-0.67 2.012,-1.829 3.475,-3.475c-0.244,1.038 -0.488,1.646 -0.73,1.829c-0.855,0.915 -2.471,3.049 -4.848,6.402c-2.742,3.84 -4.115,6.096 -4.115,6.766c0,0.49 0.336,1.053 1.006,1.693s1.189,0.959 1.555,0.959c0.609,0 1.432,-0.699 2.469,-2.104c-0.426,1.039 -0.701,1.617 -0.822,1.738c-0.428,0.672 -1.16,1.313 -2.195,1.92c-3.475,0.49 -5.121,1.555 -4.938,3.201l-0.275,14.906c0,8.291 0.518,13.107 1.555,14.447c-0.854,0.123 -1.279,1.131 -1.279,3.02c0,4.023 0.213,7.695 0.639,11.02c0.426,3.32 0.641,5.35 0.641,6.08l0,1.463c-0.121,0 -0.305,0.047 -0.547,0.137c-0.246,0.092 -0.398,0.139 -0.459,0.139l-1.279,-10.242l-0.092,12.254c0,0.242 -0.244,1.098 -0.732,2.561c-0.609,-3.109 -0.912,-4.605 -0.912,-4.482l0,-11.706c0,-1.828 -0.309,-4.328 -0.916,-7.498c-0.365,1.158 -0.549,1.982 -0.549,2.469c0,-0.182 -0.137,-0.273 -0.41,-0.273c-0.275,0 -0.564,-0.367 -0.869,-1.098c-0.184,2.5 -0.58,5.912 -1.189,10.242c-0.063,-1.098 -0.092,-2.531 -0.092,-4.297c0,-3.535 0.184,-8.734 0.549,-15.594c0.365,-6.857 0.549,-10.408 0.549,-10.652l0,-0.914c-0.488,0.365 -1.25,0.883 -2.287,1.553l-1.188,0c0.061,-0.607 0,-1.492 -0.184,-2.65c-0.305,0.305 -0.764,0.58 -1.371,0.822c0,-0.73 0.838,-3.002 2.516,-6.813c1.676,-3.809 2.514,-6.293 2.514,-7.453c0,-0.914 -0.031,-1.736 -0.092,-2.469c-9.145,-9.266 -15.395,-19.173 -18.746,-29.721c0.854,-0.426 1.432,-0.64 1.736,-0.64c1.037,0 2.471,0.366 4.299,1.097c0.061,-0.06 0.105,-0.243 0.137,-0.548c0.031,-0.305 0.168,-0.579 0.412,-0.823c1.463,0.854 3.779,3.719 6.951,8.596c2.619,4.023 5.242,8.079 7.863,12.162c0.244,-0.549 0.732,-1.28 1.463,-2.194c0.121,0.306 0.152,1.251 0.092,2.835c-0.061,1.158 0.213,2.012 0.822,2.561c0.549,-2.927 1.066,-5.974 1.555,-9.145c0.426,0.306 0.641,0.885 0.641,1.737c0,0.427 -0.09,1.221 -0.275,2.378c-0.182,1.159 -0.273,2.043 -0.273,2.653c2.926,-3.476 7.408,-8.871 13.443,-16.187c0.059,-0.183 0.092,0.549 0.092,2.195c0.73,-0.366 1.537,-1.036 2.424,-2.012c0.877,-0.976 1.776,-1.647 2.69,-2.013zm-34.75,3.841c-0.121,-0.853 -0.854,-2.133 -2.193,-3.841c-1.525,-1.829 -2.805,-2.712 -3.84,-2.652l-1.098,0c0.607,0.915 1.705,2.104 3.291,3.566c1.707,1.647 2.986,2.623 3.84,2.927zm4.756,9.419l-8.961,-11.98l-0.365,0.183l8.961,11.979l0.365,-0.182zm5.578,10.791c0,-0.732 -1.678,-3.201 -5.029,-7.408c-2.377,-2.986 -4.785,-5.944 -7.223,-8.87l11.887,17.466c0,-0.059 0.061,-0.213 0.184,-0.457c0.12,-0.242 0.181,-0.487 0.181,-0.731zm-2.01,-9.602l-7.408,-11.797l0,1.463c0,0.731 1.127,2.531 3.383,5.396c1.342,1.646 2.681,3.292 4.025,4.938zm1.463,25.331c0,-0.242 -0.063,-0.578 -0.184,-1.006c-0.123,-0.426 -0.184,-0.732 -0.184,-0.914c-0.365,0.365 -0.609,0.488 -0.73,0.365c0.061,-0.365 0.166,-0.959 0.32,-1.783c0.15,-0.822 0.287,-1.418 0.41,-1.783c-1.77,4.756 -2.652,7.561 -2.652,8.414c0,0.426 0.123,0.854 0.367,1.279c0.607,-0.305 1.203,-0.93 1.781,-1.875c0.581,-0.943 0.872,-1.842 0.872,-2.697zm1.004,-20.942l-0.365,2.104c-0.609,-0.975 -1.523,-2.683 -2.742,-5.121c0.669,0.672 1.705,1.678 3.107,3.017zm0.641,44.26l-0.457,0l0,-2.012l0.457,0l0,2.012zm0.548,-2.377l-0.457,0l-0.273,-2.926l0.455,0l0.275,2.926zm0.274,-9.053l-0.455,0l-0.275,4.205l0.457,0l0.273,-4.205zm6.676,-23.501c-0.244,-0.488 -0.762,-1.098 -1.553,-1.83c-0.428,0.855 -0.609,1.555 -0.549,2.104c0.426,0 0.867,-0.045 1.326,-0.137c0.457,-0.093 0.715,-0.137 0.776,-0.137zm2.744,-14.632l-0.365,-0.183l-2.195,3.383l0.367,0.184l2.193,-3.384zm2.195,-3.202l-0.457,-0.183l-1.738,3.109l0.367,0.183l1.828,-3.109zm2.104,7.957l-0.365,1.006l-0.367,-0.092l0.367,-0.914l0.365,0zm8.777,4.48l0,-1.828c-0.365,0.182 -0.883,0.793 -1.553,1.828l1.553,0zm0,-3.475l-0.73,0.365l0,-0.365l0.641,-0.365l0.089,0.365z" fill="#931E23"/>
   <path id="svg_9" d="m610.72301,70.047c-0.17,1.062 -3.047,3.338 -8.627,6.829c-5.584,3.49 -8.992,5.135 -10.23,4.938c-0.295,-0.049 -0.773,0.012 -1.434,0.178c-0.662,0.166 -1.143,0.225 -1.438,0.178c-0.354,-0.057 -1.658,-0.402 -3.916,-1.037s-3.549,-0.977 -3.873,-1.029s-1.268,-0.4 -2.826,-1.043c-1.563,-0.645 -2.49,-0.99 -2.783,-1.037c-1.535,-0.246 -4.387,-0.189 -8.557,0.17c-0.199,1.238 -0.42,3.078 -0.66,5.52c-0.242,2.443 -0.375,3.752 -0.404,3.93l-1.859,11.59l-0.645,2.891c-0.363,1.879 -0.594,3.322 -0.695,4.334c0.109,-1.07 0.225,-2.17 0.348,-3.301c0.053,-0.719 -0.055,-1.914 -0.33,-3.592c-0.295,0.314 -0.539,1.092 -0.738,2.332c-0.01,0.059 -0.018,1.811 -0.027,5.258c-0.008,3.447 -0.018,5.199 -0.027,5.26c-0.104,0.648 -0.787,2.262 -2.047,4.844c-1.482,3.211 -2.379,5.213 -2.689,6.012c-1.121,-2.057 -2.004,-6.373 -2.641,-12.947c0.107,-1.436 0.348,-2.637 0.715,-3.605c0.367,-0.971 0.541,-1.395 0.521,-1.277c0.066,-0.414 -0.297,-1.166 -1.088,-2.264c-0.176,0.336 -0.428,0.963 -0.756,1.877s-0.584,1.568 -0.77,1.963c0.227,-9.703 1.463,-19.486 3.713,-29.352c-0.172,-0.813 -0.904,-1.535 -2.193,-2.166c-0.842,2.225 -1.393,4.162 -1.658,5.814c-0.768,4.777 -1.396,9.637 -1.885,14.58c-0.254,2.318 -0.273,5.463 -0.063,9.428c0.188,3.355 0.35,6.68 0.486,9.969c0.473,0.076 1.061,-0.373 1.76,-1.35c-0.104,0.648 -0.178,1.301 -0.223,1.959s0.297,1.166 1.025,1.525c-0.037,0.236 -0.354,0.594 -0.943,1.074c-0.592,0.479 -0.979,0.916 -1.162,1.311c-1.398,-1.857 -2.123,-6.572 -2.178,-14.143c-0.084,-7.393 0.455,-14.719 1.619,-21.973l1.703,-10.617c-0.01,0.06 0.322,-1.158 0.994,-3.651c0.674,-2.493 1.143,-4.565 1.406,-6.217c0.18,-1.12 0.268,-2.045 0.264,-2.771c0.025,-0.541 -0.176,-1.934 -0.6,-4.18c-0.307,-1.864 -0.369,-3.174 -0.186,-3.932c-0.24,1.112 -0.219,1.932 0.059,2.46c1.084,-1.097 1.715,-2.205 1.895,-3.326c0.227,-1.416 -0.275,-2.903 -1.508,-4.462s-1.844,-2.367 -1.834,-2.426c0.682,-4.247 3.021,-7.138 7.018,-8.675c3.154,-1.187 6.885,-1.436 11.191,-0.745c0.295,0.047 0.699,0.173 1.211,0.375c0.512,0.205 0.945,0.333 1.299,0.39c0.354,0.057 2.391,0.732 6.117,2.025c3.725,1.294 5.734,1.963 6.029,2.011c4.305,0.691 9.131,2.661 14.479,5.908c5.346,3.249 8.271,5.941 8.777,8.078c0.334,1.687 0.422,3.033 0.26,4.035c-0.094,0.591 -0.381,1.241 -0.855,1.95c-0.479,0.71 -0.764,1.36 -0.859,1.95c-0.084,0.531 0.043,1.338 0.383,2.421c0.34,1.084 0.469,1.89 0.383,2.42c-0.047,0.296 -0.148,0.552 -0.303,0.768c-0.301,-0.774 -0.801,-1.792 -1.508,-3.055c-0.703,0.613 -1.148,1.692 -1.336,3.234c-0.348,2.546 -0.512,3.76 -0.492,3.642c1.57,0.011 2.676,-0.479 3.32,-1.463c0.453,-0.956 0.885,-1.945 1.293,-2.969c0.488,1.467 0.681,2.525 0.578,3.174zm-45.6,-33.088l-1.857,-0.298c-4.373,1.235 -6.721,2.855 -7.041,4.859c-0.152,0.944 -0.055,1.656 0.293,2.134c2.969,-1.157 4.818,-1.949 5.553,-2.376c1.622,-1.069 2.64,-2.51 3.052,-4.319zm-6.451,14.754c0.066,-0.412 -0.043,-0.853 -0.332,-1.324c-0.426,-0.733 -0.66,-1.164 -0.699,-1.292c-0.094,0.59 -0.328,1.476 -0.699,2.656c-0.371,1.181 -0.58,1.919 -0.627,2.213c-0.189,1.181 -0.045,2.352 0.434,3.518c1.159,-3.081 1.8,-5.004 1.923,-5.771zm-1.545,22.076l1.563,-9.731c-0.637,-0.949 -1.248,-1.471 -1.836,-1.565l-1.959,12.209c0.779,-0.723 1.525,-1.027 2.232,-0.913zm2.385,-12.595c0.5,-3.125 0.803,-5.481 0.906,-7.068c0.104,-1.585 0.121,-2.173 0.055,-1.761c-1.701,4.568 -2.545,6.822 -2.535,6.762c-0.066,0.414 0.143,0.811 0.625,1.189c0.316,0.294 0.632,0.587 0.949,0.878zm3.33,-16.798l-0.502,-0.262l-0.688,0.888l0.488,0.35l0.702,-0.976zm-7.662,57.937l-0.709,-0.113l1.148,-12.248l0.709,0.113l-1.148,12.248zm22.226,-63.313c-1.193,-0.856 -1.938,-1.309 -2.232,-1.356c-3.775,-0.606 -6.84,-0.916 -9.197,-0.931c0.348,0.842 0.723,2.083 1.127,3.72l1.682,0.27c0.823,0.132 3.698,-0.435 8.62,-1.703zm-11.496,20.751c0.047,-0.295 0.1,-1.663 0.16,-4.103c0.057,-2.441 0.137,-4.167 0.24,-5.18c-1.469,0.854 -2.432,1.577 -2.889,2.168c0.346,0.479 0.771,1.213 1.281,2.202c-0.207,0.148 -0.477,0.136 -0.811,-0.04c-0.455,-0.193 -0.711,-0.295 -0.77,-0.304l-0.838,5.219c-0.246,1.535 -0.152,2.834 0.281,3.901c0.434,1.068 0.869,2.122 1.309,3.16c0.152,-0.943 0.52,-2.307 1.109,-4.087c0.59,-1.78 0.899,-2.759 0.928,-2.936zm-8.121,45.523c1.172,-5.801 1.963,-11.301 2.375,-16.498c0.154,-1.729 -0.098,-5.248 -0.756,-10.559l-1.234,7.699c-0.096,0.59 -0.129,3.428 -0.098,8.514c0.043,5.393 -0.055,9.008 -0.287,10.844zm5.832,-34.093c0.059,-0.354 0.068,-0.806 0.037,-1.355c-0.033,-0.55 -0.041,-0.883 -0.021,-1.002c-0.648,-0.104 -1.098,-0.327 -1.344,-0.669c-0.047,0.296 -0.207,0.814 -0.477,1.557c-0.271,0.744 -0.426,1.234 -0.463,1.469c0.295,0.047 0.73,0.058 1.311,0.029c0.58,-0.029 0.899,-0.039 0.957,-0.029zm-0.9,2.215l0.299,-1.858l-0.707,-0.113l-0.297,1.858l0.705,0.113zm7.449,-27.753l0.355,-2.212c-2.061,0.395 -3.301,0.772 -3.721,1.127l-0.553,3.45c0.439,-0.111 1.205,-0.442 2.291,-0.994s1.628,-1.008 1.628,-1.371zm-5.115,40.924l-0.619,-0.1l-0.654,1.256l0.502,0.262l0.771,-1.418zm-1.817,11.324l-0.707,-0.113l1.506,-9.379l0.705,0.115l-1.504,9.377zm41.793,-35.946c0.123,-0.766 -1.34,-3.148 -4.389,-7.147c-3.217,-4.084 -5.414,-6.223 -6.594,-6.412c-2.889,-0.464 -6.98,-0.605 -12.273,-0.427c-6.863,0.169 -10.436,1.138 -10.721,2.907c-0.359,2.243 -0.857,4.506 -1.498,6.793c-0.639,2.288 -1.113,4.403 -1.426,6.35c-0.701,4.365 -0.283,7.214 1.26,8.55c1.627,-0.343 4.547,-0.631 8.76,-0.863c3.906,-0.219 6.771,-0.547 8.596,-0.98c2.902,-0.744 5.041,-2.005 6.414,-3.78c0.967,0.76 1.539,1.154 1.715,1.182c0.648,0.104 2.467,-0.662 5.453,-2.301c2.985,-1.637 4.553,-2.928 4.703,-3.872zm-12.183,-15.113c-0.506,-0.626 -0.707,-1.262 -0.602,-1.912c-0.707,-0.113 -1.758,-0.357 -3.148,-0.732c-1.393,-0.374 -2.207,-0.581 -2.443,-0.618c-0.234,-0.038 -2.063,0.032 -5.477,0.209c-3.662,0.2 -6.246,0.269 -7.748,0.209l-0.426,2.654c8.715,-0.779 14.49,-0.942 17.32,-0.488c0.354,0.057 0.803,0.175 1.35,0.354c0.545,0.178 0.937,0.286 1.174,0.324zm-6.762,26.865c-2.031,0.219 -4.063,0.437 -6.094,0.655c-2.473,0.33 -4.35,0.905 -5.631,1.729l2.477,0.397c0.933,0.21 4.016,-0.717 9.248,-2.781zm15.791,-0.008c-2.561,0.133 -6.209,0.426 -10.939,0.876c-2.725,0.773 -6.52,1.798 -11.381,3.073c0.688,0.232 1.795,0.684 3.32,1.35c1.301,0.572 2.096,0.881 2.393,0.93c3.242,0.52 6.225,0.424 8.939,-0.291c3.656,-0.924 6.213,-2.904 7.668,-5.938zm-1.299,-24.71c-1.484,-2.053 -2.463,-3.117 -2.936,-3.193l-2.477,-0.397c0.696,1.323 2.501,2.519 5.413,3.59zm-4.51,21.328l-0.18,-0.574l-4.91,1.753l-0.086,0.531l5.176,-1.71zm8.44,-14.708l-3.943,-4.263l-0.439,0.474l3.943,4.263l0.439,-0.474zm-0.342,14.011c-1.549,0.6 -3.676,1.407 -6.379,2.425c0.709,0.114 2.592,0.054 5.654,-0.181c0.049,-0.295 0.176,-0.712 0.383,-1.254c0.207,-0.542 0.322,-0.871 0.342,-0.99zm3.855,-14.989l-0.57,-2.089l-0.664,0.166l0.615,1.823l0.619,0.1z" fill="#931E23"/>
   <path id="svg_10" d="m677.96701,96.712c0,0.25 -0.273,0.869 -0.82,1.863s-0.846,1.639 -0.895,1.938c-0.547,2.285 -1.713,4.82 -3.502,7.6c-0.447,0.697 -2.484,3.529 -6.111,8.496c-1.291,1.838 -4.223,4.57 -8.791,8.197c-0.648,0.447 -2.387,1.342 -5.219,2.684c-1.688,0.844 -3.377,1.342 -5.066,1.49c-0.646,0.098 -2.211,0.148 -4.693,0.148c-0.199,0 -1.244,-0.051 -3.131,-0.148c-1.889,-0.102 -2.98,-0.148 -3.279,-0.148c-1.242,0 -3.129,-0.771 -5.662,-2.311c-2.832,-1.689 -4.248,-3.23 -4.248,-4.621c0.396,-0.447 1.416,-0.67 3.055,-0.67l3.055,0c0.248,0 0.449,0.086 0.598,0.26s0.322,0.211 0.521,0.111c0,-0.646 -0.82,-0.992 -2.459,-1.043c1.043,0.051 -0.447,0.076 -4.473,0.076l0,-1.418c0.1,-0.049 0.299,-0.223 0.598,-0.52c0.297,-0.299 0.596,-0.449 0.895,-0.449c0.197,0 0.533,0.1 1.006,0.299c0.471,0.197 0.83,0.297 1.08,0.297c0.248,0 0.496,0.051 0.746,0.15c0.246,0.1 0.521,0.15 0.818,0.15c3.229,0 5.639,-1.145 7.229,-3.43c-0.199,-0.148 -4.299,-0.223 -12.295,-0.223c-1.59,0 -3.652,-0.623 -6.186,-1.863c0,-0.1 -0.051,-0.273 -0.148,-0.521c-0.102,-0.248 -0.15,-0.447 -0.15,-0.596c1.291,-0.844 2.709,-1.416 4.248,-1.713c1.938,-0.25 3.898,-0.498 5.887,-0.746l22.133,-0.596c6.109,-6.309 9.586,-9.787 10.432,-10.434c-2.086,-1.143 -4.881,-2.162 -8.383,-3.055c-3.502,-0.895 -6.148,-1.342 -7.936,-1.342c-0.25,0 -0.436,0.088 -0.561,0.262c-0.123,0.174 -0.309,0.26 -0.557,0.26l-3.131,0c1.092,-0.695 2.832,-1.242 5.215,-1.639c1.988,-0.299 3.975,-0.598 5.963,-0.895c-1.143,-0.447 -5.203,-1.342 -12.184,-2.684s-10.943,-2.012 -11.887,-2.012c-0.199,0 -0.658,0.051 -1.379,0.148c-0.719,0.1 -1.229,0.15 -1.527,0.15c-3.775,0 -6.434,-0.348 -7.973,-1.043c-1.293,-0.598 -2.236,-1.666 -2.832,-3.205c-1.094,0.398 -2.086,0.596 -2.98,0.596c-1.49,0 -2.236,-0.496 -2.236,-1.49c0,-0.645 0.672,-2.037 2.012,-4.174c0.248,-0.346 1.045,-1.465 2.387,-3.352c0.893,-1.242 1.34,-2.013 1.34,-2.311c0,-0.197 -0.334,-0.597 -1.006,-1.191c-0.67,-0.597 -1.229,-0.869 -1.676,-0.82c2.533,-3.924 6.52,-7.575 11.959,-10.954c5.439,-3.378 10.023,-5.067 13.75,-5.067c0.248,0 2.395,0.1 6.445,0.298c4.049,0.199 6.195,0.298 6.445,0.298c-0.348,0 0.559,-0.198 2.721,-0.596c2.16,-0.397 4.781,-0.596 7.861,-0.596c0.645,0 1.727,0.261 3.24,0.782c1.516,0.522 2.396,0.982 2.646,1.378c-3.23,0.995 -4.895,1.491 -4.992,1.491c-0.199,0 -0.549,-0.049 -1.043,-0.149c-0.498,-0.099 -0.846,-0.149 -1.045,-0.149c-1.738,0 -3.924,0.372 -6.557,1.118c0.447,0.696 1.49,1.341 3.129,1.938c1.641,0.596 2.709,1.218 3.205,1.863c-2.336,-0.993 -4.174,-1.938 -5.514,-2.832c-0.199,0.199 -0.598,0.298 -1.193,0.298l0,1.565c-0.398,-0.745 -1.465,-1.416 -3.203,-2.012c-1.342,-0.496 -2.262,-0.745 -2.758,-0.745c-0.697,0 -1.416,0.298 -2.162,0.895c-1.191,1.242 -3.029,2.832 -5.514,4.769c-0.744,0.348 -1.49,0.696 -2.234,1.043c-0.945,0.547 -1.393,1.341 -1.342,2.385c-0.199,-0.1 -0.447,-0.148 -0.746,-0.148c-1.789,0 -3.453,0.696 -4.992,2.085c1.639,0.746 2.756,1.118 3.354,1.118c0.197,0 0.434,-0.049 0.707,-0.148s0.535,-0.149 0.783,-0.149c0.943,0 3.055,0.745 6.334,2.235c2.533,3.081 5.115,5.663 7.75,7.75c0.197,-0.199 0.496,-0.299 0.895,-0.299c0,-0.447 0.074,-1.092 0.223,-1.938c0.1,-0.049 0.695,0.199 1.789,0.746c0.049,0.596 -0.424,1.24 -1.416,1.938c-1.193,0.846 -1.838,1.34 -1.938,1.488c1.092,1.342 3.453,2.461 7.078,3.355l8.57,2.086c7.948,2.883 11.923,5.666 11.923,8.348zm-61.18,-17.289c0,0.15 -0.348,-0.844 -1.043,-2.979c0,0.199 -0.35,0.297 -1.045,0.297c0.049,0.846 -0.459,1.926 -1.527,3.242s-1.553,2.447 -1.453,3.389l2.461,0c0.744,0 1.389,-0.52 1.936,-1.564c0.447,-0.893 0.671,-1.688 0.671,-2.385zm0.744,-10.06l-0.445,-0.298l-0.971,1.192l0.373,0.298l1.043,-1.192zm10.209,17.513c-0.396,-0.148 -2.037,-1.117 -4.918,-2.906c-1.986,-1.193 -3.129,-1.789 -3.428,-1.789c-0.844,0 -1.615,0.646 -2.309,1.938c0.396,0.795 1.488,1.518 3.277,2.162c1.492,0.496 2.682,0.744 3.576,0.744c0.15,0 0.695,-0.023 1.641,-0.074c0.942,-0.05 1.665,-0.075 2.161,-0.075zm-7.898,-7.901c0,-0.447 -0.398,-0.67 -1.191,-0.67c-0.199,0.299 -0.299,0.67 -0.299,1.117c0,0.299 0.123,0.535 0.373,0.709c0.248,0.174 0.371,0.311 0.371,0.41c0,-0.199 0.125,-0.436 0.373,-0.709c0.248,-0.271 0.373,-0.558 0.373,-0.857zm1.416,-12.592l0,-1.416c-0.746,0.348 -1.316,0.92 -1.715,1.714c0.248,0 0.584,-0.049 1.008,-0.149c0.422,-0.099 0.658,-0.149 0.707,-0.149zm0.82,3.055l0,-1.117l-0.521,0l0,1.117l0.521,0zm7.152,13.563c-0.148,-0.049 -1.217,-0.57 -3.203,-1.564c-1.443,-0.697 -2.684,-1.018 -3.727,-0.969c0.695,1.34 1.59,2.01 2.684,2.01c1.639,-0.001 3.055,0.175 4.246,0.523zm-1.564,-11.7l-2.311,0c-0.695,0.696 -1.516,1.64 -2.459,2.833c1.242,-0.348 2.111,-0.645 2.609,-0.895c0.895,-0.448 1.614,-1.092 2.161,-1.938zm12.147,2.235c-0.943,-0.048 -2.607,-0.435 -4.992,-1.154s-3.801,-1.081 -4.248,-1.081c-0.596,0 -1.912,0.646 -3.949,1.938c-1.689,1.094 -2.832,1.915 -3.428,2.459c0.348,0.051 0.881,0.137 1.602,0.262c0.721,0.123 1.18,0.186 1.379,0.186c0.248,0 2.162,-0.447 5.738,-1.342c3.575,-0.896 6.208,-1.316 7.898,-1.268zm1.789,-17.064c-8.447,0.745 -14.186,2.932 -17.215,6.557c1.59,-0.099 3.627,-0.695 6.111,-1.788c3.029,-1.292 4.992,-2.061 5.887,-2.311c2.98,-0.744 4.72,-1.564 5.217,-2.458zm13.636,54.921c-0.398,-0.398 -0.596,-0.846 -0.596,-1.342c-13.91,0.646 -23.697,1.59 -29.361,2.83c0.695,0.697 1.018,1.168 0.969,1.418c0.1,-0.1 0.211,-0.25 0.336,-0.447c0.123,-0.199 0.234,-0.348 0.336,-0.447c0.494,0.795 1.836,1.191 4.023,1.191c0.248,0 0.906,0.025 1.975,0.074s1.727,0.074 1.975,0.074c1.143,0 2.223,0.025 3.242,0.076c1.018,0.047 1.873,0.072 2.57,0.072c0.746,0 3.217,-0.494 7.416,-1.488c4.195,-0.993 6.568,-1.663 7.115,-2.011zm-21.461,-31.894c-1.242,-0.396 -3.006,-1.117 -5.291,-2.162l-1.715,0.447c0.496,0.1 1.416,0.373 2.758,0.82c1.143,0.348 1.838,0.521 2.086,0.521c0.696,0.001 1.416,0.126 2.162,0.374zm4.397,-16.618c-2.188,0.149 -5.863,1.913 -11.029,5.291l2.832,0c0.943,0.05 2.533,-0.77 4.77,-2.459c1.487,-1.143 2.632,-2.087 3.427,-2.832zm-2.906,22.504c-0.299,-0.197 -3.008,-0.422 -8.123,-0.67c0.496,0.148 1.143,0.547 1.938,1.191c0.645,0.547 1.49,0.82 2.533,0.82c0.745,0.001 1.962,-0.446 3.652,-1.341zm10.878,-5.962c-0.945,-3.227 -4.422,-4.844 -10.432,-4.844c-1.244,0 -2.385,0.225 -3.428,0.672s-2.063,0.895 -3.057,1.342c2.781,1.092 4.447,1.639 4.994,1.639c0.246,0 0.693,-0.148 1.34,-0.447c0.646,-0.297 1.068,-0.447 1.268,-0.447c1.641,0 3.428,0.348 5.365,1.045c1.938,0.695 2.832,1.041 2.684,1.041l1.266,0l0,-0.001zm-8.345,47.693l-1.789,0.445c-0.148,-0.146 -0.621,-0.309 -1.416,-0.482c-0.795,-0.176 -1.191,-0.436 -1.191,-0.783c0,-0.1 0.025,-0.199 0.074,-0.299c-1.191,-0.943 -2.285,-1.516 -3.277,-1.713c-0.051,0.049 -0.375,-0.225 -0.971,-0.82c0.844,-0.248 1.764,-0.373 2.758,-0.373c0.298,0 2.236,1.341 5.812,4.025zm11.103,-36.887c-0.846,-0.396 -2.857,-1.18 -6.035,-2.348c-3.182,-1.166 -4.895,-1.752 -5.143,-1.752c-0.994,0 -2.162,0.572 -3.502,1.715c3.577,0.596 8.469,1.391 14.68,2.385zm-11.847,30.852l-1.119,0l0,-0.523l1.119,0l0,0.523zm6.707,-41.135c-0.398,-0.547 -1.045,-0.82 -1.938,-0.82c-0.299,0 -2.063,-0.273 -5.293,-0.82c1.94,1.441 4.348,1.988 7.231,1.64zm-1.641,41.953l-5.291,2.16l0,-0.445l5.143,-2.162l0.148,0.447zm0.447,-39.867c-0.348,-0.1 -1.006,-0.348 -1.977,-0.744c-0.967,-0.398 -1.6,-0.598 -1.898,-0.598l-1.566,0c2.436,0.943 3.951,1.416 4.547,1.416c0.299,0 0.595,-0.025 0.894,-0.074zm10.879,32.043c-3.479,0.645 -6.93,1.316 -10.357,2.012s-5.217,1.688 -5.365,2.98l4.695,0.373c1.887,-0.697 3.773,-1.391 5.662,-2.086c2.088,-0.746 3.875,-1.84 5.365,-3.279zm-11.474,11.252c-0.996,0.496 -2.311,0.744 -3.949,0.744c0,-0.146 0.283,-0.334 0.855,-0.557c0.57,-0.225 1.055,-0.336 1.453,-0.336c0.248,0 0.535,0.023 0.857,0.074c0.323,0.049 0.584,0.075 0.784,0.075zm24.74,-11.922c-3.727,2.633 -8.123,5.314 -13.191,8.047c-6.756,3.576 -11.822,5.465 -15.201,5.664c5.664,0.746 8.395,1.117 8.197,1.117c3.229,0 7.451,-2.063 12.668,-6.184c5.017,-3.925 7.527,-6.808 7.527,-8.644zm-20.494,-56.337l-0.148,-0.447l-4.396,1.565l0,0.447l4.544,-1.565zm1.492,25.263c-0.199,0 -0.549,-0.25 -1.045,-0.746c-0.744,0.25 -1.715,0.697 -2.904,1.34c0.297,0.299 0.793,0.447 1.488,0.447c0.15,0 0.969,-0.346 2.461,-1.041zm4.023,-4.174c-1.342,-0.197 -3.703,-3.354 -7.08,-9.464c0.199,-0.695 0.373,-1.042 0.521,-1.042c0.596,1.441 1.738,3.33 3.428,5.663c1.739,2.532 2.784,4.148 3.131,4.843zm-1.64,6.408c-0.695,-0.746 -1.168,-1.117 -1.416,-1.117c0,0.1 -0.1,0.287 -0.297,0.559c-0.199,0.273 -0.299,0.461 -0.299,0.559l2.012,0l0,-0.001zm0.746,34.502l-0.373,-0.299l-0.746,0.746l0.299,0.299l0.82,-0.746zm11.699,-22.43c-0.398,-0.645 -0.771,-1.314 -1.117,-2.012c-0.746,-1.043 -1.541,-1.564 -2.385,-1.564c0.396,0 -1.863,0.348 -6.781,1.043c1.092,0.297 2.793,0.721 5.105,1.266c2.309,0.549 4.033,0.969 5.178,1.267zm-6.93,18.555l-0.15,-0.371l-1.938,0.596l0,0.447l2.088,-0.672zm12.071,-14.455c-0.197,0 -0.533,-0.113 -1.004,-0.338c-0.475,-0.223 -0.832,-0.334 -1.082,-0.334c-1.092,0 -3.006,0.895 -5.738,2.684c-2.832,1.938 -4.246,3.527 -4.246,4.77l0,1.266l2.533,0c1.59,0.051 3.602,-1.117 6.035,-3.502c2.088,-2.087 3.254,-3.603 3.502,-4.546zm-10.209,9.984l0,-0.447l-1.266,-0.297l0,0.445l1.266,0.299zm2.982,2.534c-0.35,-0.348 -0.721,-0.521 -1.119,-0.521s-0.855,0.211 -1.377,0.633c-0.521,0.424 -0.783,0.934 -0.783,1.527c0.297,-0.148 0.832,-0.434 1.602,-0.855c0.771,-0.423 1.327,-0.685 1.677,-0.784zm6.035,-4.395l-1.342,0c-0.297,0 -1.154,0.459 -2.57,1.377c-1.416,0.92 -2.123,1.453 -2.123,1.602l2.906,0c0.645,-0.645 1.688,-1.639 3.129,-2.979zm-3.578,-17.961l0,-0.521l-1.266,-0.148l0,0.521l1.266,0.148zm2.76,6.856l-3.131,-3.875l-0.447,0.299l3.205,3.801l0.373,-0.225zm6.853,-5.217c-0.148,-0.047 -0.869,-0.371 -2.16,-0.967c-0.846,-0.398 -1.74,-0.598 -2.684,-0.598c-1.938,0 -3.029,0.572 -3.277,1.715c0.596,0.199 1.564,0.695 2.906,1.49c1.193,0.695 1.938,1.043 2.234,1.043c0.199,0 0.709,-0.348 1.527,-1.043c0.822,-0.695 1.306,-1.24 1.454,-1.64zm-1.564,12.596l0,-1.418l-2.98,1.27c-1.043,0.545 -1.938,1.291 -2.682,2.234c1.24,-0.297 3.129,-0.995 5.662,-2.086zm-3.502,-9.018l-1.416,-1.043l-0.223,0.447l1.342,0.969l0.297,-0.373zm6.559,5.291c-0.547,-0.844 -1.119,-1.689 -1.715,-2.535c-0.496,-0.693 -0.967,-1.117 -1.416,-1.266c-0.695,0.348 -1.043,0.92 -1.043,1.715c0,0.297 0.248,0.744 0.744,1.34c0.498,0.598 1.045,0.895 1.641,0.895c0.248,0 0.398,0.1 0.447,0.299s0.197,0.297 0.447,0.297c0.496,-0.001 0.795,-0.247 0.895,-0.745zm0.595,-6.856c0,-0.1 -0.063,-0.285 -0.186,-0.561c-0.125,-0.271 -0.188,-0.457 -0.188,-0.559c-1.143,0.697 -2.113,1.467 -2.904,2.311c0.297,-0.1 0.842,-0.297 1.639,-0.596c0.794,-0.296 1.34,-0.495 1.639,-0.595zm0.895,1.565c-0.25,0 -0.783,0.111 -1.604,0.334c-0.818,0.225 -1.379,0.338 -1.676,0.338c0.1,0.1 1.068,1.092 2.906,2.979c0.448,-1.788 0.571,-3.005 0.374,-3.651z" fill="#931E23"/>
   <path id="svg_11" d="m739.02001,102.096c-2.654,0 -4.217,0.307 -4.689,0.924c-0.285,-0.381 -1.234,-0.57 -2.844,-0.57c-0.238,0 -0.758,0.096 -1.564,0.287c-0.805,0.188 -1.326,0.283 -1.563,0.283c-0.285,0 -0.547,-0.049 -0.781,-0.143c-0.238,-0.096 -0.453,-0.141 -0.641,-0.141l-6.469,0c0.096,0 -3.104,0.365 -9.594,1.102c-6.492,0.732 -10.828,1.123 -13.008,1.172c-0.096,0.094 -0.117,0.33 -0.07,0.709c0.094,0.758 0.143,1.445 0.143,2.063c-0.143,0.047 -0.688,0.545 -1.635,1.492c-0.475,-2.797 -2.18,-4.193 -5.117,-4.193c-0.332,0 -0.83,0.023 -1.494,0.07c-0.664,0 -1.16,0 -1.492,0c-1.279,0 -2.297,-0.166 -3.055,-0.496c0.188,-0.807 1.23,-1.471 3.127,-1.99c2.131,-0.617 3.363,-1.113 3.695,-1.492c-0.096,-0.475 -0.404,-1.115 -0.924,-1.92c-0.096,-0.047 -0.83,-0.83 -2.203,-2.346c-1.139,-1.279 -1.967,-1.918 -2.488,-1.918c-0.189,0 -0.639,0.143 -1.352,0.426c-0.709,0.285 -1.207,0.426 -1.49,0.426c-0.238,0 -0.428,-0.047 -0.57,-0.141c-0.143,-0.096 -0.332,-0.143 -0.568,-0.143s-0.379,0.094 -0.426,0.283c-0.049,0.189 -0.189,0.285 -0.428,0.285c-0.236,0 -0.557,-0.096 -0.959,-0.285s-0.676,-0.283 -0.816,-0.283c0.047,-0.615 0.307,-1.043 0.781,-1.279c-0.096,-0.094 -0.213,-0.094 -0.355,0c-0.189,0.096 -0.404,0.143 -0.639,0.143c-0.334,0 -0.676,-0.201 -1.031,-0.605c-0.355,-0.4 -0.533,-0.744 -0.533,-1.029c0.379,-0.189 1.018,-0.285 1.918,-0.285c1.186,0 1.85,0 1.992,0c0.613,-0.047 1.111,-0.236 1.49,-0.568c-0.094,-0.332 -0.543,-0.734 -1.35,-1.209c-1.043,-0.613 -1.73,-1.09 -2.061,-1.42c0.188,-0.189 0.898,-0.285 2.131,-0.285c-0.094,0 1.125,-0.367 3.662,-1.102c2.533,-0.734 4.512,-1.219 5.934,-1.457l-1.422,-20.683c-0.047,-6.823 0.047,-10.708 0.285,-11.656c-0.664,-0.047 -2.109,0.332 -4.336,1.137c-2.227,0.806 -3.412,1.208 -3.553,1.208l-1.564,0c0.664,-0.899 1.73,-2.345 3.199,-4.335c-0.096,0 -0.262,-0.036 -0.498,-0.106c-0.238,-0.071 -0.475,-0.107 -0.711,-0.107c-0.189,0 -0.676,0.154 -1.457,0.462c-0.781,0.309 -1.434,0.462 -1.955,0.462c-0.379,0 -0.758,-0.071 -1.137,-0.214c1.705,-0.853 3.459,-1.706 5.26,-2.558c1.801,-0.853 3.576,-2.014 5.33,-3.483c-0.332,-0.331 -1.207,-0.557 -2.629,-0.675c-1.422,-0.118 -2.371,-0.391 -2.844,-0.817c0.332,-0.426 1.824,-0.64 4.479,-0.64c2.131,0 3.719,-0.498 4.762,-1.493c0.854,-0.805 1.705,-2.392 2.559,-4.762c0.094,0.048 0.746,0.629 1.955,1.742c1.207,1.114 2,1.67 2.381,1.67c0.236,0 1.621,-0.568 4.158,-1.706c2.533,-1.137 3.92,-1.681 4.158,-1.634l2.416,0c-0.568,0.71 -1.99,1.492 -4.266,2.345c-2.842,1.137 -4.666,1.943 -5.473,2.417c5.117,0.568 8.932,0.853 11.443,0.853c0.189,0 1.326,-0.094 3.412,-0.285c2.084,-0.188 3.223,-0.284 3.412,-0.284c0.852,0 2.273,0.403 4.264,1.208c-0.047,0.522 -1.184,1.564 -3.412,3.127c-0.189,0 -0.51,-0.046 -0.959,-0.142c-0.451,-0.094 -0.795,-0.142 -1.031,-0.142s-0.711,0.142 -1.42,0.426c-0.854,0.333 -1.422,0.545 -1.707,0.64c0.094,0.237 0.355,0.687 0.781,1.35c0.428,0.664 0.748,0.995 0.961,0.995s0.816,0.332 1.811,0.995c0.996,0.664 1.588,1.279 1.779,1.848l-0.996,-0.853c-1.611,-0.188 -3.197,-0.899 -4.762,-2.132c-1.564,-1.231 -2.229,-1.848 -1.99,-1.848c-0.189,0 -1.066,0.249 -2.631,0.746c-1.563,0.498 -2.676,0.794 -3.34,0.888c-1.705,0.096 -3.41,0.213 -5.117,0.355c-1.943,0.142 -3.412,0.593 -4.406,1.351c-0.994,10.377 -1.492,16.537 -1.492,18.479c0,-0.237 0.021,0.426 0.07,1.99c0.094,1.849 0.166,4.502 0.213,7.96c0.047,1.896 0.072,2.986 0.072,3.27c0.188,1.377 0.639,2.063 1.35,2.063c0.189,0 0.746,-0.143 1.67,-0.426c0.924,-0.285 1.504,-0.428 1.742,-0.428c-0.381,0 0.213,0.049 1.777,0.143c1.563,0.096 3.979,0.143 7.248,0.143l20.115,-1.422c0.898,0 1.658,0.213 2.273,0.639c0,0.191 -0.283,0.568 -0.852,1.137c1.467,0.666 2.605,1.754 3.41,3.27c-2.842,0.996 -4.689,1.494 -5.543,1.494c-0.189,0 -0.521,-0.094 -0.996,-0.285c-0.473,-0.189 -0.828,-0.283 -1.066,-0.283l-1.635,0c-2.463,0 -4.666,0.094 -6.609,0.283c-3.648,0.379 -7.25,0.689 -10.803,0.924c-0.568,0.049 -1.518,0.238 -2.844,0.568c-1.326,0.334 -2.096,0.498 -2.309,0.498s-0.594,0.049 -1.139,0.143c-0.545,0.096 -0.936,0.143 -1.172,0.143c-0.189,0 -0.438,-0.096 -0.746,-0.285c-0.309,-0.188 -0.582,-0.285 -0.818,-0.285c-1.705,0 -2.559,0.76 -2.559,2.275c0,0.475 0.26,2.582 0.783,6.326c1.041,0 2.533,0 4.477,0c1.943,-0.047 2.938,-0.072 2.984,-0.072l1.066,0.355c0.189,0 1.043,-0.203 2.561,-0.604c1.516,-0.402 2.367,-0.604 2.557,-0.604l7.961,0c-0.141,0 1.979,-0.332 6.361,-0.996s6.977,-0.994 7.783,-0.994c0.473,0 1.268,0.248 2.381,0.746s1.742,0.889 1.885,1.174c-2.371,0.094 -5.996,0.426 -10.875,0.994c0.141,0.188 0.805,0.283 1.99,0.283c-1.803,0 1.729,0 10.59,0c0,0.096 0.047,0.285 0.141,0.568c0.098,0.283 0.145,0.543 0.145,0.781zm-53.946,-8.103l0,-0.496l-2.488,0l0,0.496l2.488,0zm6.822,-4.336c-1.848,0.191 -4.406,0.475 -7.676,0.854c0.9,0.902 1.422,1.35 1.564,1.35c0.711,0 1.801,-0.234 3.27,-0.709c1.659,-0.474 2.606,-0.972 2.842,-1.495zm-2.203,-36.746c-1.137,-0.284 -2.25,-0.426 -3.34,-0.426c-0.947,0.475 -1.541,1.137 -1.777,1.991l1.209,0c0.236,0 0.863,-0.237 1.883,-0.711c1.02,-0.473 1.693,-0.757 2.025,-0.854zm2.702,46.627c0,-2.607 -0.07,-4.406 -0.213,-5.402c-1.092,0.285 -2.109,0.402 -3.057,0.355c0,0.096 -0.047,0.262 -0.143,0.498c-0.096,0.238 -0.141,0.402 -0.141,0.498c1.563,1.563 2.747,2.914 3.554,4.051zm-1.635,-11.301l0,-0.498l-1.635,0l0,0.498l1.635,0zm0.07,-37.528l-0.709,-0.355l-0.213,0.426l0.781,0.355l0.141,-0.426zm2.205,30.846l0,-13.575c0,-1.659 -0.131,-3.4 -0.391,-5.225c-0.262,-1.823 -0.393,-3.376 -0.393,-4.655c0,-1.042 0.049,-2.25 0.143,-3.625c-0.664,2.464 -0.994,4.738 -0.994,6.823l1.635,20.257zm1.563,-24.876l0,-1.564l-0.498,0l0,1.564l0.498,0zm0.285,41.722l-0.285,-3.625l-0.498,0l0.285,3.625l0.498,0zm0.996,-51.886l-1.352,0l0.355,1.066c0.663,-0.331 0.997,-0.686 0.997,-1.066zm-0.143,-3.198l0,-1.066l-0.498,0l0,1.066l0.498,0zm11.371,43.285c-2.322,0 -4.479,-0.143 -6.467,-0.428c-1.234,0.285 -2.205,0.381 -2.916,0.285c0,0.568 -0.166,0.852 -0.498,0.852l-0.709,0.428c0.426,0.096 0.898,0.143 1.422,0.143c0.994,0 2.486,-0.189 4.477,-0.57c2.512,-0.427 4.074,-0.663 4.691,-0.71zm-9.097,-44.849l-0.355,-0.143l-0.355,0.711l0.355,0.213l0.355,-0.781zm-0.285,7.819l0,-0.782l-0.426,0l0,0.782l0.426,0zm0.498,-3.057l-0.143,-0.426l-0.639,0.355l0,0.427l0.782,-0.356zm8.884,1.777c-4.076,0.238 -6.396,0.213 -6.965,-0.071c-0.143,0 -0.285,0.202 -0.428,0.604c-0.141,0.403 -0.26,0.652 -0.355,0.747l2.701,0c0.238,0 0.971,-0.166 2.203,-0.498c1.518,-0.427 2.466,-0.687 2.844,-0.782zm6.327,39.377l0,-0.428l-6.043,0.996l0,0.426l6.043,-0.994zm14.783,-0.784c0.283,0 -0.545,-0.07 -2.488,-0.213c-1.564,-0.094 -2.369,-0.07 -2.416,0.07c-0.521,-0.188 -1.422,-0.283 -2.701,-0.283c-0.189,0 -1.563,0.617 -4.121,1.848c4.736,-0.711 8.646,-1.183 11.726,-1.422zm-4.762,14.217l-1.777,0.283l0,-0.498l1.777,-0.283l0,0.498zm2.344,-0.498c-0.094,0 -0.225,-0.084 -0.389,-0.25c-0.168,-0.166 -0.369,-0.248 -0.605,-0.248c-0.568,0 -0.852,0.283 -0.852,0.852c0.473,0 0.887,-0.059 1.242,-0.178c0.356,-0.117 0.557,-0.176 0.604,-0.176z" fill="#931E23"/>
  </g>
 </g>
</svg>